<?xml version="1.0" encoding="UTF-8" standalone="no"?>
<!-- Uploaded to: SVG Repo, www.svgrepo.com, Generator: SVG Repo Mixer Tools -->

<svg
   version="1.1"
   id="Layer_1"
   width="800px"
   height="800px"
   viewBox="0 0 512 512"
   xml:space="preserve"
   sodipodi:docname="folder-yellow.svg"
   inkscape:version="1.1.2 (0a00cf5339, 2022-02-04)"
   xmlns:inkscape="http://www.inkscape.org/namespaces/inkscape"
   xmlns:sodipodi="http://sodipodi.sourceforge.net/DTD/sodipodi-0.dtd"
   xmlns="http://www.w3.org/2000/svg"
   xmlns:svg="http://www.w3.org/2000/svg"><defs
   id="defs11" /><sodipodi:namedview
   id="namedview9"
   pagecolor="#ffffff"
   bordercolor="#666666"
   borderopacity="1.0"
   inkscape:pageshadow="2"
   inkscape:pageopacity="0.0"
   inkscape:pagecheckerboard="0"
   showgrid="false"
   inkscape:zoom="1.055"
   inkscape:cx="399.52607"
   inkscape:cy="400"
   inkscape:window-width="1920"
   inkscape:window-height="1029"
   inkscape:window-x="1920"
   inkscape:window-y="27"
   inkscape:window-maximized="1"
   inkscape:current-layer="Layer_1" />
<g
   id="g6">
	<g
   id="g4">
		<path
   d="M426.844,171.755v-67.396H175.018l-22.465-67.396H0v438.076h410.905L512,171.755H426.844z M33.698,70.66h94.566    l22.465,67.396h242.416v33.698H94.566L33.698,354.359V70.66z M386.617,441.34H40.226l78.629-235.887h346.391L386.617,441.34z"
   id="path2" />
	</g>
</g>
<path
   style="fill:#ffff00;stroke-width:0.947867"
   d="m 53.629332,329.62085 -0.07483,-218.72038 h 73.232358 73.23235 l 17.51634,52.60664 17.51633,52.60663 h 189.3461 189.3461 v 26.06446 26.06445 l -233.33334,0.23887 -233.33334,0.23886 -46.68662,139.81043 -46.686618,139.81042 z"
   id="path82"
   transform="scale(0.64)" /><path
   style="fill:#ffff00;stroke-width:0.947867"
   d="m 63.981043,688.38678 c 0,-0.392 27.440894,-83.03418 60.979767,-183.64929 l 60.97976,-182.93654 270.22112,-0.23861 270.22111,-0.2386 -61.29415,183.88789 -61.29413,183.8879 H 333.88778 c -148.44871,0 -269.906737,-0.32074 -269.906737,-0.71275 z"
   id="path121"
   transform="scale(0.64)" /></svg>
