<?xml version="1.0" encoding="UTF-8" standalone="no"?>
<!-- Uploaded to: SVG Repo, www.svgrepo.com, Generator: SVG Repo Mixer Tools -->

<svg
   version="1.1"
   id="designs"
   width="800px"
   height="800px"
   viewBox="0 0 32 32"
   xml:space="preserve"
   sodipodi:docname="scroll-gray.svg"
   inkscape:version="1.1.2 (0a00cf5339, 2022-02-04)"
   xmlns:inkscape="http://www.inkscape.org/namespaces/inkscape"
   xmlns:sodipodi="http://sodipodi.sourceforge.net/DTD/sodipodi-0.dtd"
   xmlns="http://www.w3.org/2000/svg"
   xmlns:svg="http://www.w3.org/2000/svg"><defs
   id="defs1672" /><sodipodi:namedview
   id="namedview1670"
   pagecolor="#ffffff"
   bordercolor="#666666"
   borderopacity="1.0"
   inkscape:pageshadow="2"
   inkscape:pageopacity="0.0"
   inkscape:pagecheckerboard="0"
   showgrid="false"
   inkscape:zoom="1.055"
   inkscape:cx="399.52607"
   inkscape:cy="400"
   inkscape:window-width="1920"
   inkscape:window-height="1029"
   inkscape:window-x="1920"
   inkscape:window-y="27"
   inkscape:window-maximized="1"
   inkscape:current-layer="designs" />
<style
   type="text/css"
   id="style1665">
	.sketchy_een{fill:#111918;}
</style>
<path
   class="sketchy_een"
   d="m 2.0212189,8.875 c 0.079,-0.388 0.181,-0.774 0.299,-1.152 0.112,-0.367 0.266,-0.718 0.411,-1.073 0.172,-0.424 0.351,-0.824 0.606,-1.206 0.253,-0.378 0.531,-0.743 0.793,-1.117 0.1,-0.144 0.223,-0.247 0.375,-0.317 0.02,-0.015 0.033,-0.037 0.055,-0.05 0.031,-0.018 0.065,-0.027 0.098,-0.041 0.012,-0.334 0.226,-0.656 0.565,-0.739 0.405,-0.098 0.83,-0.116 1.245,-0.141 0.363,-0.023 0.726,-0.039 1.088,-0.044 0.785,-0.015 1.571,-0.008 2.356,-0.014 0.6450001,-0.003 1.2920001,-0.016 1.9390001,-0.016 0.14,0 0.281,0.001 0.421,0.002 0.826,0.008 1.65,0.01 2.474,0.016 0.986,0.004 1.97,0.017 2.954,0.021 0.507,0.002 1.013,-0.002 1.519,-0.008 0.538,-0.004 1.079,-0.01 1.617,-0.008 0.26,10e-4 0.484,0.139 0.63,0.338 0.018,0.015 0.041,0.021 0.057,0.039 0.301,0.318 0.596,0.673 0.807,1.061 0.21,0.39 0.369,0.805 0.502,1.225 0.237,0.748 0.443,1.516 0.584,2.286 0.295,1.622 0.453,3.266 0.644,4.903 0.108,0.929 0.219,1.858 0.338,2.788 0.154,1.12 0.348,2.235 0.608,3.335 0.133,0.558 0.278,1.113 0.457,1.659 0.17,0.525 0.376,1.04 0.59,1.549 0.16,0.365 0.324,0.739 0.545,1.073 0.019,0.021 0.027,0.048 0.044,0.071 0.006,0 0.013,0 0.019,0 0.805,0 1.61,0.004 2.414,0.017 0.211,0.004 0.404,0.091 0.548,0.229 0.288,0.188 0.442,0.542 0.35,0.889 -0.096,0.367 -0.172,0.745 -0.303,1.102 -0.149,0.409 -0.328,0.801 -0.527,1.187 -0.191,0.372 -0.405,0.716 -0.668,1.044 -0.22,0.274 -0.479,0.505 -0.749,0.729 -0.164,0.134 -0.33,0.219 -0.54,0.233 -0.109,0.052 -0.228,0.087 -0.356,0.09 -1.731,0.041 -3.462,-0.019 -5.193,-0.031 -1.686,-0.012 -3.373,-0.004 -5.061,-0.014 -0.87,-0.006 -1.742,0.01 -2.613,0.023 -0.262,0.006 -0.527,0.006 -0.791,0.004 -0.536,-0.002 -1.077,-0.002 -1.611,0.044 -0.011,10e-4 -0.021,-0.006 -0.032,-0.005 -0.307,0.239 -0.802,0.258 -1.072,-0.051 -0.291,-0.336 -0.5630001,-0.695 -0.8010001,-1.071 -0.247,-0.39 -0.413,-0.818 -0.579,-1.247 -0.284,-0.729 -0.527,-1.491 -0.683,-2.258 -0.342,-1.663 -0.567,-3.352 -0.753,-5.04 -0.061,-0.56 -0.123,-1.12 -0.195,-1.679 -0.136,-0.949 -0.285,-1.896 -0.414,-2.846 -0.18,-1.298 -0.4,-2.589 -0.68,-3.871 -0.068,-0.311 -0.139,-0.622 -0.214,-0.932 -0.003,0.003 -0.004,0.007 -0.006,0.009 -0.141,0.141 -0.372,0.259 -0.579,0.239 -0.834,-0.081 -1.665,-0.131 -2.503,-0.179 -0.112,-0.006 -0.218,-0.035 -0.316,-0.079 -0.057,-0.002 -0.115,0.005 -0.171,-0.011 -0.426,-0.12 -0.629,-0.546 -0.542,-0.965 z M 16.435219,27.231 c 1.683,-0.01 3.365,-0.004 5.048,-0.01 0.878,-0.004 1.754,0 2.632,-0.006 0.886,-0.006 1.774,-0.04 2.66,-0.07 0.192,-0.164 0.376,-0.332 0.545,-0.523 0.294,-0.409 0.528,-0.86 0.732,-1.32 0.049,-0.136 0.087,-0.273 0.128,-0.41 -0.557,-0.016 -1.114,-0.033 -1.67,-0.049 -0.81,-0.023 -1.625,-0.021 -2.435,-0.021 -1.58,0.002 -3.164,0.019 -4.743,0.098 -1.708,0.082 -3.421,0.131 -5.129,0.244 -0.046,0.159 -0.089,0.319 -0.139,0.476 -0.112,0.345 -0.262,0.677 -0.421,1.005 -0.102,0.213 -0.22,0.409 -0.347,0.601 0.212,-0.002 0.424,-0.003 0.636,-0.005 0.836,-0.004 1.669,-0.004 2.503,-0.01 z M 7.5152189,9.036 c 0.415,1.617 0.745,3.251 0.998,4.901 0.089,0.583 0.168,1.167 0.257,1.748 0.083,0.536 0.174,1.073 0.249,1.609 0.166,1.186 0.268,2.375 0.416,3.56 0.13,0.936 0.281,1.87 0.469,2.798 0.1910001,0.941 0.4980001,1.864 0.8560001,2.756 0.14,0.294 0.316,0.561 0.501,0.826 0.056,-0.072 0.111,-0.145 0.189,-0.195 0.159,-0.141 0.298,-0.297 0.432,-0.461 0.213,-0.301 0.371,-0.623 0.519,-0.956 0.172,-0.457 0.286,-0.934 0.412,-1.404 0.003,-0.01 0.009,-0.017 0.012,-0.026 0.021,-0.07 0.051,-0.132 0.089,-0.191 0.01,-0.015 0.019,-0.028 0.03,-0.042 0.043,-0.056 0.089,-0.106 0.146,-0.149 0.019,-0.015 0.04,-0.026 0.061,-0.04 0.053,-0.033 0.106,-0.065 0.166,-0.087 0.029,-0.011 0.06,-0.014 0.09,-0.021 0.054,-0.013 0.104,-0.034 0.161,-0.038 0.378,-0.023 0.756,-0.025 1.135,-0.041 0.405,-0.019 0.81,-0.039 1.218,-0.052 0.791,-0.025 1.582,-0.039 2.373,-0.077 0.778,-0.037 1.555,-0.089 2.335,-0.106 0.78,-0.017 1.559,-0.027 2.341,-0.027 0.651,0 1.303,-0.002 1.954,-0.005 -0.024,-0.054 -0.052,-0.11 -0.076,-0.163 -0.181,-0.394 -0.336,-0.799 -0.492,-1.202 -0.286,-0.747 -0.523,-1.499 -0.726,-2.271 -0.407,-1.557 -0.668,-3.143 -0.863,-4.739 -0.193,-1.582 -0.348,-3.167 -0.545,-4.748 -0.108,-0.788 -0.226,-1.574 -0.385,-2.355 -0.079,-0.388 -0.195,-0.772 -0.301,-1.154 -0.106,-0.375 -0.223,-0.744 -0.359,-1.108 -0.111,-0.237 -0.241,-0.456 -0.394,-0.671 -0.096,-0.115 -0.198,-0.226 -0.301,-0.336 -1.588,-0.029 -3.174,-0.083 -4.76,-0.108 -0.834,-0.014 -1.667,-0.017 -2.501,-0.016 -0.822,0.002 -1.642,0.027 -2.464,0.048 -0.8430001,0.021 -1.6860001,0.035 -2.5280001,0.039 -0.76,0.002 -1.519,0.02 -2.274,0.105 -0.029,0.005 -0.058,0.011 -0.087,0.016 0.354,0.632 0.67,1.284 0.916,1.967 0.285,0.795 0.521,1.6 0.731,2.416 z m -1.728,-0.513 c -0.176,-0.605 -0.371,-1.205 -0.602,-1.792 -0.102,-0.224 -0.215,-0.441 -0.329,-0.657 -0.02,0.026 -0.039,0.053 -0.058,0.079 -0.209,0.284 -0.375,0.58 -0.519,0.9 -0.138,0.328 -0.274,0.656 -0.392,0.99 -0.039,0.111 -0.062,0.227 -0.097,0.34 0.59,0.015 1.179,0.042 1.766,0.093 0.083,0.006 0.157,0.026 0.231,0.047 z m 6.1880001,1.997 c -0.102,0.174 -0.129,0.386 -0.077,0.579 0.052,0.187 0.177,0.351 0.345,0.45 0.178,0.104 0.359,0.113 0.554,0.08 0.218,-0.017 0.438,-0.016 0.656,-0.016 0.118,0 0.233,0.002 0.349,-0.002 0.415,-0.008 0.832,-0.017 1.247,-0.012 0.974,0.016 1.947,0.081 2.919,0.104 0.399,0.01 0.731,-0.34 0.731,-0.731 0,-0.401 -0.332,-0.727 -0.731,-0.731 -0.349,-0.002 -0.7,0.002 -1.052,0.008 -0.656,0.008 -1.312,0.017 -1.97,-0.023 -0.424,-0.025 -0.849,-0.037 -1.274,-0.042 -0.206,-0.004 -0.411,-0.01 -0.616,-0.019 -0.113,-0.006 -0.229,-0.016 -0.345,-0.016 -0.031,0 -0.061,0.001 -0.092,0.002 -0.266,0.014 -0.505,0.132 -0.644,0.369 z m 1.101,2.927 c -0.135,0.135 -0.212,0.32 -0.212,0.509 0,0.378 0.328,0.741 0.722,0.722 0.814,-0.041 1.638,-0.031 2.453,-0.004 0.45,0.016 0.899,0.012 1.349,0.025 0.484,0.014 0.969,0.041 1.455,0.066 0.403,0.021 0.741,-0.353 0.741,-0.741 0,-0.411 -0.338,-0.729 -0.741,-0.741 -0.411,-0.01 -0.822,0 -1.233,0.008 -0.523,0.012 -1.046,0.023 -1.571,-0.006 -0.436,-0.025 -0.874,-0.027 -1.312,-0.025 -0.38,0 -0.764,0.014 -1.14,-0.023 -0.013,-10e-4 -0.027,-0.002 -0.04,-0.002 -0.173,0 -0.357,0.097 -0.471,0.212 z m 0.061,3.259 c -0.102,0.176 -0.129,0.388 -0.075,0.581 0.05,0.189 0.178,0.353 0.345,0.452 0.193,0.112 0.369,0.104 0.581,0.075 0.013,-0.002 0.025,-0.004 0.039,-0.004 -0.068,0.008 -0.133,0.017 -0.201,0.027 0.855,-0.11 1.725,-0.106 2.584,-0.087 0.496,0.012 0.994,0.012 1.49,0.017 0.517,0.004 1.032,0.048 1.548,0.064 0.417,0.016 0.762,-0.355 0.762,-0.76 0,-0.417 -0.345,-0.762 -0.762,-0.762 -0.536,0 -1.071,0.037 -1.607,0.041 -0.484,0.004 -0.969,-0.008 -1.453,-0.01 -0.48,-0.002 -0.959,-0.008 -1.438,-0.029 -0.139,-0.006 -0.278,-0.009 -0.419,-0.009 -0.248,0 -0.498,0.01 -0.743,0.032 -0.27,0.022 -0.508,0.127 -0.651,0.372 z"
   id="path1667" />
<path
   style="fill:#cccccc"
   d="M 139.41667,211.60385 C 139.1875,211.38597 129.325,210.67127 117.5,210.01563 c -11.825,-0.65564 -21.622712,-1.31259 -21.772693,-1.45988 -0.472093,-0.46363 5.732283,-17.37171 10.290513,-28.04359 4.23712,-9.92008 7.99703,-16.96104 12.94814,-24.24726 l 2.38532,-3.5103 3.69579,7.33886 c 2.03268,4.03637 5.26843,11.62909 7.19056,16.8727 3.67553,10.02696 11.21055,33.00339 11.24323,34.28384 0.0197,0.77141 -3.31924,1.06212 -4.06419,0.35385 z"
   id="path81"
   transform="scale(0.04)" /><path
   style="fill:#cccccc"
   d="M 275.44383,670.40701 C 269.86474,661.17054 266.78803,653.8892 259.84887,633.5 248.06045,598.86226 240.59144,558.3531 231.91559,482 c -4.57292,-40.24459 -5.28383,-45.44684 -14.82711,-108.5 -8.78524,-58.04481 -12.85455,-80.18323 -22.16299,-120.5744 -12.53763,-54.4032 -23.1187,-87.15802 -38.17139,-118.16357 -4.73632,-9.75588 -8.40513,-17.94433 -8.15291,-18.19656 1.96024,-1.96024 124.58132,-4.63931 207.89881,-4.54225 27.225,0.0317 73.338,0.66296 102.47333,1.40275 l 52.97334,1.34509 4.23218,4.86447 c 9.61187,11.04789 15.46606,24.76662 24.26577,56.86447 4.64802,16.95418 8.73738,37.83043 12.43871,63.5 2.36451,16.39837 4.05557,30.60992 13.08908,110 10.94364,96.17704 23.79504,153.23565 47.96574,212.9619 4.10926,10.15405 7.31056,18.62273 7.114,18.81928 -0.19655,0.19656 -30.8887,0.74148 -68.20476,1.21094 -37.31607,0.46945 -68.52239,1.08385 -69.34739,1.36531 -1.51757,0.51776 -23.06898,1.40602 -102,4.20401 -23.925,0.84811 -45.01562,1.94713 -46.86805,2.44228 -4.496,1.20175 -9.34218,4.62275 -11.90809,8.4061 -1.15268,1.6996 -3.9033,9.68696 -6.11248,17.74969 -5.22381,19.065 -9.01501,28.73371 -15.40431,39.28567 C 296.63505,663.99588 283.44774,679 281.38334,679 c -0.412,0 -3.08478,-3.86685 -5.93951,-8.59299 z M 380,444.36347 c 12.1,-0.34598 42.1929,-0.0888 66.8731,0.57155 l 44.87311,1.2006 4.54926,-2.81781 c 10.53808,-6.52729 12.35397,-20.80002 3.83756,-30.16282 -4.99239,-5.48855 -2.23983,-5.29314 -77.98432,-5.53635 -38.58179,-0.12388 -73.10123,0.0748 -76.70987,0.44153 -8.4723,0.86099 -13.48982,3.30419 -16.67723,8.1207 -4.78794,7.23506 -3.8133,19.14339 2.01356,24.60203 4.97777,4.66321 7.62996,5.37785 17.72483,4.776 5.225,-0.31151 19.4,-0.84945 31.5,-1.19543 z m 101.25885,-77.53828 c 4.93626,-3.02831 8.68665,-10.14107 8.59754,-16.30561 -0.0403,-2.78931 -0.78901,-6.4555 -1.66376,-8.14708 -2.28013,-4.40927 -8.11057,-9.19093 -11.92125,-9.77684 -2.89491,-0.44511 -129.41903,-2.17063 -139.07627,-1.89671 -2.275,0.0645 -5.38321,1.15241 -7.73024,2.7056 -10.90176,7.21444 -10.60609,24.73635 0.52438,31.07599 3.99853,2.27746 4.18135,2.28669 60.01075,3.02959 30.8,0.40985 61.175,1.076 67.5,1.48033 14.16722,0.90566 19.55321,0.41481 23.75885,-2.16527 z m -23.7683,-75.68046 c 5.77124,-3.09515 9.27606,-8.31451 9.79636,-14.58871 0.59065,-7.1225 -0.14862,-9.75946 -3.9498,-14.08876 -5.73419,-6.53088 -5.31719,-6.46582 -41.53745,-6.4811 -18.03981,-0.008 -41.57466,-0.44116 -52.29966,-0.96345 -10.725,-0.52229 -28.5,-1.07856 -39.5,-1.23616 -21.89288,-0.31367 -23.05737,-0.0752 -28.68638,5.87417 -3.41976,3.6144 -4.81362,7.33221 -4.81362,12.83928 0,5.50707 1.39386,9.22488 4.81362,12.83928 5.53333,5.84826 6.32722,5.98119 33.16092,5.55252 27.92384,-0.44609 59.15352,-0.0495 82.52546,1.04796 29.80932,1.39976 36.64852,1.26547 40.49055,-0.79503 z"
   id="path120"
   transform="scale(0.04)" /><path
   style="fill:#cccccc"
   d="m 336.64721,675.56615 c 6.06554,-10.3198 14.09866,-28.98214 16.81585,-39.06615 0.74101,-2.75 1.72476,-5.49286 2.18612,-6.09524 0.92788,-1.21151 2.79808,-1.32351 81.85082,-4.90178 90.51496,-4.0971 124.22335,-4.81782 192,-4.10518 34.375,0.36143 65.0822,0.92507 68.23822,1.25253 5.56964,0.57788 5.72138,0.67256 5.16504,3.22252 -0.80286,3.6799 -8.64428,20.0886 -14.15828,29.62715 -2.75907,4.77285 -7.51381,10.87381 -11.78684,15.12408 l -7.16223,7.12409 -6.89795,0.62496 c -6.88152,0.62347 -100.14393,1.34869 -250.06319,1.94453 l -79.16522,0.31463 z"
   id="path159"
   transform="scale(0.04)" /></svg>
