<?xml version="1.0" encoding="UTF-8" standalone="no"?>
<!-- Uploaded to: SVG Repo, www.svgrepo.com, Generator: SVG Repo Mixer Tools -->

<svg
   version="1.1"
   id="designs"
   width="800px"
   height="800px"
   viewBox="0 0 32 32"
   xml:space="preserve"
   sodipodi:docname="scroll-plain.svg"
   inkscape:version="1.1.2 (0a00cf5339, 2022-02-04)"
   xmlns:inkscape="http://www.inkscape.org/namespaces/inkscape"
   xmlns:sodipodi="http://sodipodi.sourceforge.net/DTD/sodipodi-0.dtd"
   xmlns="http://www.w3.org/2000/svg"
   xmlns:svg="http://www.w3.org/2000/svg"><defs
   id="defs1672" /><sodipodi:namedview
   id="namedview1670"
   pagecolor="#ffffff"
   bordercolor="#666666"
   borderopacity="1.0"
   inkscape:pageshadow="2"
   inkscape:pageopacity="0.0"
   inkscape:pagecheckerboard="0"
   showgrid="false"
   inkscape:zoom="1.055"
   inkscape:cx="399.52607"
   inkscape:cy="400"
   inkscape:window-width="1920"
   inkscape:window-height="1029"
   inkscape:window-x="1920"
   inkscape:window-y="27"
   inkscape:window-maximized="1"
   inkscape:current-layer="designs" />
<style
   type="text/css"
   id="style1665">
	.sketchy_een{fill:#111918;}
</style>
<path
   class="sketchy_een"
   d="m 2.0212189,8.875 c 0.079,-0.388 0.181,-0.774 0.299,-1.152 0.112,-0.367 0.266,-0.718 0.411,-1.073 0.172,-0.424 0.351,-0.824 0.606,-1.206 0.253,-0.378 0.531,-0.743 0.793,-1.117 0.1,-0.144 0.223,-0.247 0.375,-0.317 0.02,-0.015 0.033,-0.037 0.055,-0.05 0.031,-0.018 0.065,-0.027 0.098,-0.041 0.012,-0.334 0.226,-0.656 0.565,-0.739 0.405,-0.098 0.83,-0.116 1.245,-0.141 0.363,-0.023 0.726,-0.039 1.088,-0.044 0.785,-0.015 1.571,-0.008 2.356,-0.014 0.6450001,-0.003 1.2920001,-0.016 1.9390001,-0.016 0.14,0 0.281,0.001 0.421,0.002 0.826,0.008 1.65,0.01 2.474,0.016 0.986,0.004 1.97,0.017 2.954,0.021 0.507,0.002 1.013,-0.002 1.519,-0.008 0.538,-0.004 1.079,-0.01 1.617,-0.008 0.26,10e-4 0.484,0.139 0.63,0.338 0.018,0.015 0.041,0.021 0.057,0.039 0.301,0.318 0.596,0.673 0.807,1.061 0.21,0.39 0.369,0.805 0.502,1.225 0.237,0.748 0.443,1.516 0.584,2.286 0.295,1.622 0.453,3.266 0.644,4.903 0.108,0.929 0.219,1.858 0.338,2.788 0.154,1.12 0.348,2.235 0.608,3.335 0.133,0.558 0.278,1.113 0.457,1.659 0.17,0.525 0.376,1.04 0.59,1.549 0.16,0.365 0.324,0.739 0.545,1.073 0.019,0.021 0.027,0.048 0.044,0.071 0.006,0 0.013,0 0.019,0 0.805,0 1.61,0.004 2.414,0.017 0.211,0.004 0.404,0.091 0.548,0.229 0.288,0.188 0.442,0.542 0.35,0.889 -0.096,0.367 -0.172,0.745 -0.303,1.102 -0.149,0.409 -0.328,0.801 -0.527,1.187 -0.191,0.372 -0.405,0.716 -0.668,1.044 -0.22,0.274 -0.479,0.505 -0.749,0.729 -0.164,0.134 -0.33,0.219 -0.54,0.233 -0.109,0.052 -0.228,0.087 -0.356,0.09 -1.731,0.041 -3.462,-0.019 -5.193,-0.031 -1.686,-0.012 -3.373,-0.004 -5.061,-0.014 -0.87,-0.006 -1.742,0.01 -2.613,0.023 -0.262,0.006 -0.527,0.006 -0.791,0.004 -0.536,-0.002 -1.077,-0.002 -1.611,0.044 -0.011,10e-4 -0.021,-0.006 -0.032,-0.005 -0.307,0.239 -0.802,0.258 -1.072,-0.051 -0.291,-0.336 -0.5630001,-0.695 -0.8010001,-1.071 -0.247,-0.39 -0.413,-0.818 -0.579,-1.247 -0.284,-0.729 -0.527,-1.491 -0.683,-2.258 -0.342,-1.663 -0.567,-3.352 -0.753,-5.04 -0.061,-0.56 -0.123,-1.12 -0.195,-1.679 -0.136,-0.949 -0.285,-1.896 -0.414,-2.846 -0.18,-1.298 -0.4,-2.589 -0.68,-3.871 -0.068,-0.311 -0.139,-0.622 -0.214,-0.932 -0.003,0.003 -0.004,0.007 -0.006,0.009 -0.141,0.141 -0.372,0.259 -0.579,0.239 -0.834,-0.081 -1.665,-0.131 -2.503,-0.179 -0.112,-0.006 -0.218,-0.035 -0.316,-0.079 -0.057,-0.002 -0.115,0.005 -0.171,-0.011 -0.426,-0.12 -0.629,-0.546 -0.542,-0.965 z M 16.435219,27.231 c 1.683,-0.01 3.365,-0.004 5.048,-0.01 0.878,-0.004 1.754,0 2.632,-0.006 0.886,-0.006 1.774,-0.04 2.66,-0.07 0.192,-0.164 0.376,-0.332 0.545,-0.523 0.294,-0.409 0.528,-0.86 0.732,-1.32 0.049,-0.136 0.087,-0.273 0.128,-0.41 -0.557,-0.016 -1.114,-0.033 -1.67,-0.049 -0.81,-0.023 -1.625,-0.021 -2.435,-0.021 -1.58,0.002 -3.164,0.019 -4.743,0.098 -1.708,0.082 -3.421,0.131 -5.129,0.244 -0.046,0.159 -0.089,0.319 -0.139,0.476 -0.112,0.345 -0.262,0.677 -0.421,1.005 -0.102,0.213 -0.22,0.409 -0.347,0.601 0.212,-0.002 0.424,-0.003 0.636,-0.005 0.836,-0.004 1.669,-0.004 2.503,-0.01 z M 7.5152189,9.036 c 0.415,1.617 0.745,3.251 0.998,4.901 0.089,0.583 0.168,1.167 0.257,1.748 0.083,0.536 0.174,1.073 0.249,1.609 0.166,1.186 0.268,2.375 0.416,3.56 0.13,0.936 0.281,1.87 0.469,2.798 0.1910001,0.941 0.4980001,1.864 0.8560001,2.756 0.14,0.294 0.316,0.561 0.501,0.826 0.056,-0.072 0.111,-0.145 0.189,-0.195 0.159,-0.141 0.298,-0.297 0.432,-0.461 0.213,-0.301 0.371,-0.623 0.519,-0.956 0.172,-0.457 0.286,-0.934 0.412,-1.404 0.003,-0.01 0.009,-0.017 0.012,-0.026 0.021,-0.07 0.051,-0.132 0.089,-0.191 0.01,-0.015 0.019,-0.028 0.03,-0.042 0.043,-0.056 0.089,-0.106 0.146,-0.149 0.019,-0.015 0.04,-0.026 0.061,-0.04 0.053,-0.033 0.106,-0.065 0.166,-0.087 0.029,-0.011 0.06,-0.014 0.09,-0.021 0.054,-0.013 0.104,-0.034 0.161,-0.038 0.378,-0.023 0.756,-0.025 1.135,-0.041 0.405,-0.019 0.81,-0.039 1.218,-0.052 0.791,-0.025 1.582,-0.039 2.373,-0.077 0.778,-0.037 1.555,-0.089 2.335,-0.106 0.78,-0.017 1.559,-0.027 2.341,-0.027 0.651,0 1.303,-0.002 1.954,-0.005 -0.024,-0.054 -0.052,-0.11 -0.076,-0.163 -0.181,-0.394 -0.336,-0.799 -0.492,-1.202 -0.286,-0.747 -0.523,-1.499 -0.726,-2.271 -0.407,-1.557 -0.668,-3.143 -0.863,-4.739 -0.193,-1.582 -0.348,-3.167 -0.545,-4.748 -0.108,-0.788 -0.226,-1.574 -0.385,-2.355 -0.079,-0.388 -0.195,-0.772 -0.301,-1.154 -0.106,-0.375 -0.223,-0.744 -0.359,-1.108 -0.111,-0.237 -0.241,-0.456 -0.394,-0.671 -0.096,-0.115 -0.198,-0.226 -0.301,-0.336 -1.588,-0.029 -3.174,-0.083 -4.76,-0.108 -0.834,-0.014 -1.667,-0.017 -2.501,-0.016 -0.822,0.002 -1.642,0.027 -2.464,0.048 -0.8430001,0.021 -1.6860001,0.035 -2.5280001,0.039 -0.76,0.002 -1.519,0.02 -2.274,0.105 -0.029,0.005 -0.058,0.011 -0.087,0.016 0.354,0.632 0.67,1.284 0.916,1.967 0.285,0.795 0.521,1.6 0.731,2.416 z m -1.728,-0.513 c -0.176,-0.605 -0.371,-1.205 -0.602,-1.792 -0.102,-0.224 -0.215,-0.441 -0.329,-0.657 -0.02,0.026 -0.039,0.053 -0.058,0.079 -0.209,0.284 -0.375,0.58 -0.519,0.9 -0.138,0.328 -0.274,0.656 -0.392,0.99 -0.039,0.111 -0.062,0.227 -0.097,0.34 0.59,0.015 1.179,0.042 1.766,0.093 0.083,0.006 0.157,0.026 0.231,0.047 z m 6.1880001,1.997 c -0.102,0.174 -0.129,0.386 -0.077,0.579 0.052,0.187 0.177,0.351 0.345,0.45 0.178,0.104 0.359,0.113 0.554,0.08 0.218,-0.017 0.438,-0.016 0.656,-0.016 0.118,0 0.233,0.002 0.349,-0.002 0.415,-0.008 0.832,-0.017 1.247,-0.012 0.974,0.016 1.947,0.081 2.919,0.104 0.399,0.01 0.731,-0.34 0.731,-0.731 0,-0.401 -0.332,-0.727 -0.731,-0.731 -0.349,-0.002 -0.7,0.002 -1.052,0.008 -0.656,0.008 -1.312,0.017 -1.97,-0.023 -0.424,-0.025 -0.849,-0.037 -1.274,-0.042 -0.206,-0.004 -0.411,-0.01 -0.616,-0.019 -0.113,-0.006 -0.229,-0.016 -0.345,-0.016 -0.031,0 -0.061,0.001 -0.092,0.002 -0.266,0.014 -0.505,0.132 -0.644,0.369 z m 1.101,2.927 c -0.135,0.135 -0.212,0.32 -0.212,0.509 0,0.378 0.328,0.741 0.722,0.722 0.814,-0.041 1.638,-0.031 2.453,-0.004 0.45,0.016 0.899,0.012 1.349,0.025 0.484,0.014 0.969,0.041 1.455,0.066 0.403,0.021 0.741,-0.353 0.741,-0.741 0,-0.411 -0.338,-0.729 -0.741,-0.741 -0.411,-0.01 -0.822,0 -1.233,0.008 -0.523,0.012 -1.046,0.023 -1.571,-0.006 -0.436,-0.025 -0.874,-0.027 -1.312,-0.025 -0.38,0 -0.764,0.014 -1.14,-0.023 -0.013,-10e-4 -0.027,-0.002 -0.04,-0.002 -0.173,0 -0.357,0.097 -0.471,0.212 z m 0.061,3.259 c -0.102,0.176 -0.129,0.388 -0.075,0.581 0.05,0.189 0.178,0.353 0.345,0.452 0.193,0.112 0.369,0.104 0.581,0.075 0.013,-0.002 0.025,-0.004 0.039,-0.004 -0.068,0.008 -0.133,0.017 -0.201,0.027 0.855,-0.11 1.725,-0.106 2.584,-0.087 0.496,0.012 0.994,0.012 1.49,0.017 0.517,0.004 1.032,0.048 1.548,0.064 0.417,0.016 0.762,-0.355 0.762,-0.76 0,-0.417 -0.345,-0.762 -0.762,-0.762 -0.536,0 -1.071,0.037 -1.607,0.041 -0.484,0.004 -0.969,-0.008 -1.453,-0.01 -0.48,-0.002 -0.959,-0.008 -1.438,-0.029 -0.139,-0.006 -0.278,-0.009 -0.419,-0.009 -0.248,0 -0.498,0.01 -0.743,0.032 -0.27,0.022 -0.508,0.127 -0.651,0.372 z"
   id="path1667" />
</svg>
