<?xml version="1.0" encoding="UTF-8" standalone="no"?>
<!-- Uploaded to: SVG Repo, www.svgrepo.com, Generator: SVG Repo Mixer Tools -->

<svg
   version="1.1"
   id="Capa_1"
   width="800px"
   height="800px"
   viewBox="0 0 491.928 491.928"
   xml:space="preserve"
   sodipodi:docname="truck-green.svg"
   inkscape:version="1.1.2 (0a00cf5339, 2022-02-04)"
   xmlns:inkscape="http://www.inkscape.org/namespaces/inkscape"
   xmlns:sodipodi="http://sodipodi.sourceforge.net/DTD/sodipodi-0.dtd"
   xmlns="http://www.w3.org/2000/svg"
   xmlns:svg="http://www.w3.org/2000/svg"><defs
   id="defs7" /><sodipodi:namedview
   id="namedview5"
   pagecolor="#ffffff"
   bordercolor="#666666"
   borderopacity="1.0"
   inkscape:pageshadow="2"
   inkscape:pageopacity="0.0"
   inkscape:pagecheckerboard="0"
   showgrid="false"
   inkscape:zoom="1.055"
   inkscape:cx="399.52607"
   inkscape:cy="400"
   inkscape:window-width="1920"
   inkscape:window-height="1029"
   inkscape:window-x="1920"
   inkscape:window-y="27"
   inkscape:window-maximized="1"
   inkscape:current-layer="Capa_1" />
<path
   d="M488.56,226.977l-83.433-83.433c-2.157-2.156-5.082-3.368-8.132-3.368H337.13V96.312c0-11.544-9.982-21.297-21.797-21.297  L21.297,75.015C9.554,75.015,0,84.568,0,96.312v243.949c0,11.744,9.554,21.298,21.297,21.298h34.987  c5.263,31.369,32.593,55.354,65.434,55.354s60.171-23.984,65.434-55.354h152.27c5.263,31.369,32.593,55.354,65.434,55.354  c32.847,0,60.182-23.992,65.437-55.371c0.113,0.004,0.223,0.018,0.337,0.018c11.744,0,21.297-9.554,21.297-21.297V235.108  C491.928,232.059,490.716,229.134,488.56,226.977z M392.231,163.176l62.716,62.716H337.13v-62.716H392.231z M56.459,338.56H23  V98.015l291.13,0.001V338.56H186.977c-5.662-30.888-32.76-54.375-65.259-54.375C89.22,284.185,62.121,307.672,56.459,338.56z   M121.718,393.913c-23.911,0-43.364-19.453-43.364-43.364c0-23.911,19.453-43.364,43.364-43.364  c23.911,0,43.364,19.453,43.364,43.364C165.083,374.46,145.629,393.913,121.718,393.913z M404.856,393.913  c-23.911,0-43.364-19.453-43.364-43.364c0-23.911,19.453-43.364,43.364-43.364c23.911,0,43.364,19.453,43.364,43.364  C448.221,374.46,428.767,393.913,404.856,393.913z M404.856,284.185c-32.499,0-59.597,23.487-65.259,54.375h-2.468v-89.668h131.798  v84.389C461.307,305.035,435.477,284.185,404.856,284.185z"
   id="path2" />
<path
   style="fill:#00ff00;stroke-width:0.947867"
   d="M 37.440758,354.9763 V 160.18957 H 273.93365 510.42654 v 194.79094 194.79095 l -102.98743,-0.24119 -102.98743,-0.24117 -2.25159,-8.53081 c -4.63893,-17.5759 -15.76401,-35.96444 -29.85438,-49.34601 -37.95987,-36.05034 -97.20344,-39.56383 -139.17035,-8.25361 -6.50741,4.85498 -17.62427,16.11548 -22.83263,23.12763 -7.95908,10.71556 -15.636808,27.80144 -18.365413,40.8701 l -0.54424,2.60663 H 64.436918 37.440758 Z"
   id="path80"
   transform="scale(0.61491)" /><path
   style="fill:#00ff00;stroke-width:0.947867"
   d="m 548.34123,477.25118 v -72.51184 h 107.10901 107.109 l -0.0693,67.06161 -0.0693,67.06161 -1.84723,-5.21327 c -5.31753,-15.00738 -16.53057,-32.03421 -28.1097,-42.6843 -53.65905,-49.35372 -138.56238,-34.05016 -171.07624,30.83596 -3.47766,6.94017 -7.75765,18.85704 -8.83488,24.59914 -0.45817,2.44229 -1.12099,3.36294 -2.42113,3.36294 -1.73948,0 -1.79025,-2.05615 -1.79025,-72.51185 z"
   id="path119"
   transform="scale(0.61491)" /><path
   style="fill:#00ff00;stroke-width:0.947867"
   d="m 180.92945,637.93674 c -39.90207,-10.46174 -62.45463,-52.46921 -48.83379,-90.96011 3.72233,-10.51888 8.03101,-17.33441 16.24557,-25.69749 13.14443,-13.38208 27.78243,-19.85185 46.59848,-20.59583 13.47562,-0.53281 21.91884,1.1043 32.68701,6.33791 14.96528,7.27352 25.57606,17.63394 32.61076,31.84134 14.62173,29.53029 7.49703,63.50093 -17.84622,85.09084 -6.72861,5.73211 -20.27361,12.36649 -29.30823,14.35527 -9.22924,2.03161 -23.62119,1.86514 -32.15358,-0.37193 z"
   id="path158"
   transform="scale(0.61491)" /><path
   style="fill:#00ff00;stroke-width:0.947867"
   d="m 641.70616,638.00281 c -27.62768,-7.54124 -47.29538,-28.75387 -52.31086,-56.41998 -3.65518,-20.1625 3.11453,-42.89227 17.35619,-58.27457 14.28168,-15.42554 31.06903,-22.8494 51.60291,-22.82032 12.34844,0.0175 19.81563,1.73352 30.86574,7.09322 14.5265,7.04587 27.88741,21.2628 33.90864,36.08115 15.24814,37.52591 -4.76674,80.30524 -43.50793,92.9928 -10.41136,3.40968 -28.062,4.03707 -37.91469,1.3477 z"
   id="path197"
   transform="scale(0.61491)" /></svg>
